<svg width="16" height="17" viewBox="0 0 16 17" fill="none" xmlns="http://www.w3.org/2000/svg">
<path d="M8.00004 1.65613C11.682 1.65613 14.6667 4.70363 14.6667 8.46315C14.6667 12.2227 11.682 15.2702 8.00004 15.2702C4.31804 15.2702 1.33337 12.2227 1.33337 8.46315C1.33337 4.70363 4.31804 1.65613 8.00004 1.65613ZM8.00004 4.37893C7.82323 4.37893 7.65366 4.45065 7.52864 4.57831C7.40361 4.70596 7.33337 4.8791 7.33337 5.05964V8.46315C7.33341 8.64366 7.40367 8.81677 7.52871 8.9444L9.52871 10.9865C9.65444 11.1105 9.82284 11.1791 9.99764 11.1776C10.1724 11.176 10.3396 11.1044 10.4633 10.9782C10.5869 10.852 10.657 10.6813 10.6585 10.5028C10.66 10.3243 10.5928 10.1524 10.4714 10.024L8.66671 8.18133V5.05964C8.66671 4.8791 8.59647 4.70596 8.47144 4.57831C8.34642 4.45065 8.17685 4.37893 8.00004 4.37893Z" fill="#BFBFBF"/>
</svg>
